<?xml version="1.0" encoding="utf-8"?>
<!-- Generator: Adobe Illustrator 23.0.6, SVG Export Plug-In . SVG Version: 6.00 Build 0)  -->
<svg version="1.1" id="Layer_1" xmlns="http://www.w3.org/2000/svg" xmlns:xlink="http://www.w3.org/1999/xlink" x="0px" y="0px"
	 viewBox="0 0 192 150.4" style="enable-background:new 0 0 192 150.4;" xml:space="preserve">
<style type="text/css">
	.st0{fill-rule:evenodd;clip-rule:evenodd;fill:#3C8C9B;}
</style>
<g>
	<path class="st0" d="M180.8,54.6c-2.9-8.9-1.2-15.4-6.3-21.8c-5.9-5.6-12.7-4.5-20.2-8.9c-7.1-4.9-8.8-11.4-15.9-14.1
		c-8-2.4-12.9,1.6-22,0.5c-10-1.9-11.3-7.1-20-7.5h-0.1c-8.7,0.3-10,5.5-20,7.5c-9.1,1.1-14-2.9-22-0.5c-7.1,2.7-8.7,9.1-15.9,14.1
		c-7.5,4.4-14.3,3.3-20.2,8.9c-5.1,6.4-3.3,12.9-6.3,21.8c-3.5,8.7-9.8,11.7-9.8,20.3s6.2,11.7,9.8,20.4c2.9,8.9,1.2,15.4,6.3,21.8
		c5.9,5.6,12.7,4.5,20.2,8.9c7.1,4.9,8.8,11.4,15.9,14.1c8,2.4,12.9-1.6,22-0.5c10,1.9,11.3,7.1,20,7.5h0.1c8.6-0.3,10-5.5,20-7.5
		c9.1-1.1,14,2.9,22,0.5c7.1-2.7,8.8-9.1,15.9-14.1c7.4-4.4,14.3-3.3,20.2-8.9c5.1-6.4,3.3-12.9,6.3-21.8c3.6-8.7,9.8-11.8,9.8-20.4
		C190.6,66.2,184.3,63.3,180.8,54.6 M96.5,131.2c-47.2,0-78.7-24.7-78.7-56.3s31.5-56.3,78.7-56.3s78.7,24.7,78.7,56.3
		C175.1,106.5,143.6,131.2,96.5,131.2"/>
	<path class="st0" d="M82.9,86h-3.2c-0.3,0-0.7,0.1-0.8,0.7c-1,6.4-3.4,10.9-11.3,10.9c-11,0-12.2-14.8-12.2-25.8
		c0-7.3,2.3-22,11.8-22c7.6,0,10,4.1,11.2,10.8c0.1,0.6,0.4,0.8,0.8,0.8h3.2c0.5,0,0.8-0.3,0.8-0.8V46.3c0-0.5-0.3-0.8-0.8-0.8h-3.3
		c-0.4,0-0.6,0.2-0.8,0.7c-0.4,0.8-0.7,1.5-1.8,1.5c-0.8,0-1.4-0.4-2.6-0.9c-1.5-0.6-4.1-1.6-8.8-1.6c-14.6,0-25.4,11.1-25.4,28.8
		c0,14.9,9,28.6,25.5,28.6c7.3,0,10.6-1.9,12.4-1.9c0.8,0,1.1,0.5,1.3,0.9c0.2,0.4,0.5,0.5,0.8,0.5H83c0.5,0,0.8-0.3,0.8-0.8V87
		C83.7,86.3,83.4,86,82.9,86"/>
	<path class="st0" d="M109.7,67.2h-6.4c-0.6,0-0.7,0.3-0.7,0.4c-0.5,2.1-1.5,4.1-2.9,6.1l-4-6c2.9-1.3,6.1-3.3,6.1-6.4
		c0-3.7-3-6-7.2-6s-8.2,2.3-8.2,6.9c0,2,0.9,3.5,1.9,4.8c-3.2,1-7.1,3.9-7.1,8.1c0.1,4.8,4.4,7.7,9.7,7.7c2.2,0,5-0.4,7.3-2.3
		c1.9,2,5.2,1.7,5.2,1.7h2.6c0.5,0,0.7-0.2,0.8-0.5l0.8-1.9c0.3-0.7-0.3-0.6-0.5-0.6h-1.2c-2.6,0-3.9-2.1-3.9-2.1
		c1.6-1.6,1.9-2.1,2.9-3.6c0.7-0.9,1.6-2.4,1.6-2.4c0.4-0.6,0.7-1.1,1.4-1.1h0.9c0.4,0,0.6-0.2,0.8-0.5l0.8-1.7
		C110.5,67.2,110.1,67.2,109.7,67.2 M94.4,57.9c1.5,0,2.2,1.4,2.2,2.8c0,2-1,3.6-3,4.6c-1.1-1.7-1.8-2.8-1.8-4.6
		C91.9,59.2,92.8,57.9,94.4,57.9 M91.7,80c-2.9,0-4.7-1.8-4.7-5c0-2,1.2-4.1,2.9-5.2l5.9,8.1C94.6,79.1,93.5,80,91.7,80"/>
	<path class="st0" d="M155.7,97.2h-1c-2.4,0-3.1-0.7-3.8-2.7c0,0-15.1-43.1-16.9-48.3c-0.2-0.5-0.5-0.7-1.1-0.7h-6.5
		c-0.5,0-0.9,0.2-1.1,0.7L105,94.7c-0.4,1-0.8,1.6-1.8,2.1c-0.9,0.5-2.7,0.4-2.7,0.4H100c-0.5,0-0.8,0.3-0.8,0.8v3.1
		c0,0.5,0.3,0.8,0.8,0.8h15.8c0.5,0,0.8-0.3,0.8-0.8v-3.2c0-0.5-0.3-0.8-0.8-0.8H114c-1.4,0-3-0.1-3-1.7c0-0.5,0.1-1.1,0.5-1.9
		l3.1-7.6h18.5c0.9,2.4,2.2,6.8,2.2,6.8s0.5,1.5,0.6,2.1c0.1,0.2,0.1,0.5,0.1,0.8c0,0.7-0.4,1.4-1.9,1.4h-1.9
		c-0.5,0-0.8,0.3-0.8,0.8v3.2c0,0.5,0.3,0.8,0.8,0.8h23.4c0.5,0,0.8-0.3,0.8-0.8v-3.1C156.6,97.5,156.2,97.2,155.7,97.2 M116.5,81.7
		l8.8-22l6.7,22H116.5z"/>
</g>
</svg>
